<?xml version="1.0" encoding="iso-8859-1"?>
<!-- Generator: Adobe Illustrator 22.1.0, SVG Export Plug-In . SVG Version: 6.00 Build 0)  -->
<svg version="1.1" id="Layer_1" xmlns="http://www.w3.org/2000/svg" xmlns:xlink="http://www.w3.org/1999/xlink" x="0px" y="0px"
	 width="500px" height="500px" viewBox="0 0 500 500" enable-background="new 0 0 500 500" xml:space="preserve">
<path fill=" #ff9f1c" d="M477.778,357.504c-14.064-19.924-64.543-87.146-133.524-130.845
	c-81.705-51.735-153.113-75.008-187.436-69.148c0,0,26.788,28.546,13.394,41.02c0,0-11.636,4.437-20.51-0.921
	c-8.957-5.358-15.654-13.394-18.333-16.492c-2.679-3.097,2.679-40.601,28.546-49.977c0,0,6.697,0.921,10.715,3.097
	c4.018,2.26,16.492,2.679,24.528,4.939c8.037,2.26,12.055,4.437,13.394,4.437s12.473-6.697,9.794-13.813
	c-2.679-7.116-2.679-3.6-16.073-14.734s-14.315-13.813-15.152-16.073c-0.921-2.26-5.358-9.795-8.037-14.315
	c-2.679-4.437-9.794-18.752-13.394-25.868c-3.6-7.116-13.394-18.752-13.394-16.492c0,2.26,5.358,13.813,9.794,21.012
	c4.437,7.116,8.037,12.473,8.037,16.073c0,3.6-4.437,6.697-9.376,5.358S149.62,68.691,146.02,64.672
	c-3.6-4.018-16.994-13.813-16.492-10.297c0.419,3.6,10.297,12.976,14.315,16.994c4.018,4.018,11.636,12.055,12.055,15.152
	c0.419,3.097-3.097,5.776-3.097,5.776s-31.225,1.339-37.002,11.636c0,0,7.116,3.097,7.116,4.437s-36.583,9.795-39.68,26.37
	c0,0,6.279,2.26,8.037,1.758c1.758-0.419-12.976,12.976-16.492,25.449c0,0,9.794-1.339,8.957,0.921
	c-0.335,0.837-2.344,5.358-4.772,12.055c-10.548-5.274-20.343-5.944-24.612-5.86c-0.837,0-1.172,1.005-0.586,1.591
	c8.12,7.283,15.403,17.496,19.171,23.021c-2.26,8.204-4.186,17.161-4.772,25.533c-1.172,15.571,10.297,32.9,18.836,43.531
	c1.256,8.706,3.349,26.705,0.167,30.556c-4.269,5.107-33.234,9.125-42.192,12.976c-8.957,3.767-3.097,15.403-3.097,15.403
	s5.776-8.455,8.288-7.116c2.428,1.339,2.009,6.446,2.009,6.446s6.948-9.376,9.794-7.785c2.93,1.591,3.097,6.948,3.097,6.948
	s5.107-10.297,17.161-11.134c12.055-0.921,24.528-3.767,25.198-10.464c0.419-4.018,0.167-10.464-0.084-14.985
	c4.855,3.181,11.469,6.613,20.426,9.543c0.419,4.353-0.419,11.385-9.209,14.817c-13.143,5.107-27.458,7.367-29.886,12.976
	c-2.428,5.609,0,10.715,0,10.715s4.018-8.288,6.697-5.609c2.679,2.679,2.679,5.107,2.679,5.107s5.776-6.948,8.706-5.776
	c2.93,1.088,4.437,5.609,4.437,5.609s4.269-11.636,10.046-12.473c5.776-0.921,10.046,1.591,18.501-4.688
	c5.023-3.767,5.944-11.05,5.776-16.324c3.683,0.67,7.618,1.172,11.804,1.591c9.041,0.921,17.915,3.349,25.951,7.534
	c1.423,0.753,2.846,1.591,4.269,2.428c-12.306,4.437-24.779,6.697-27.04,11.887c-2.428,5.609,0,10.715,0,10.715
	s4.018-8.288,6.697-5.609c2.679,2.679,2.679,5.107,2.679,5.107s5.776-6.948,8.706-5.776c2.93,1.088,4.437,5.609,4.437,5.609
	s4.269-11.636,10.046-12.473c1.674-0.251,3.181-0.251,4.688-0.251c1.507,2.26,2.595,4.688,2.93,7.367
	c2.26,17.831-7.618,26.37-18.752,28.546c-11.134,2.26-25.03-7.618-29.467-4.939c0,0,2.679,4.437,0.419,5.776s-24.11-6.279-34.323,0
	c0,0,4.018,5.776,1.758,7.116c-2.26,1.339-26.37-8.036-39.68-1.758c0,0,5.776,3.6,3.097,5.776
	c-2.679,2.26-38.843-2.679-47.717,9.795c0,0,4.437,3.097,1.758,4.437c-2.679,1.339-18.752,13.813-15.655,23.189
	s23.691,16.994,62.953,12.976s86.142-20.091,123.645-3.6c0.251,0.084,0.502,0.167,0.67,0.335c1.423,2.846,3.097,7.199,4.018,12.641
	c1.256,7.785,5.693,13.896,7.534,16.073c0.251,0.251,0.67,0.084,0.67-0.251c-0.084-2.93-0.251-10.464,1.172-9.376
	c1.674,1.256,5.86,11.385,9.962,14.985c0.251,0.167,0.586,0.084,0.67-0.251c0.419-2.26,2.093-9.46,5.944-8.706
	c3.851,0.753,18.752,10.464,27.374,20.175c0.586,0.586,1.507,0,1.172-0.753c-4.269-9.041-14.399-27.793-30.137-38.843
	c0,0,5.107-3.097,7.367-4.269c2.009-1.005-19.589-11.553-32.983-7.534c-11.72-5.86-25.533-10.046-40.852-9.878
	c-49.056,0.419-113.767,20.51-116.027,1.339s76.347-23.189,94.178-21.849c17.831,1.339,104.391-2.26,89.741-56.674
	c0,0,7.116-18.752,45.038-9.795c30.807,7.283,49.893,27.793,55.921,35.244c0.753,0.921,2.177,0.335,2.093-0.837
	c-0.419-5.693-2.679-17.999-13.813-33.988c0,0,17.413-1.339,47.717,16.994c29.551,17.831,59.855,62.618,93.174,69.148
	c1.423,0.251,2.511-1.339,1.758-2.595c-1.674-2.846-5.944-8.036-16.324-17.496c-19.171-17.412-27.207-35.244-20.51-39.262
	c4.018-2.428,9.209-2.177,12.976,0.586l29.132,21.18C477.192,359.931,478.532,358.592,477.778,357.504z"/>
<g>
</g>
<g>
</g>
<g>
</g>
<g>
</g>
<g>
</g>
<g>
</g>
<g>
</g>
<g>
</g>
<g>
</g>
<g>
</g>
<g>
</g>
<g>
</g>
<g>
</g>
<g>
</g>
<g>
</g>
</svg>
